<svg width="18" height="18" viewBox="0 0 18 18" fill="none" xmlns="http://www.w3.org/2000/svg">
<path d="M0 1.48502C0 1.32987 0.0618399 1.18108 0.171916 1.07137C0.281991 0.961658 0.431286 0.900024 0.586957 0.900024H2.34783C2.47875 0.90006 2.60591 0.943725 2.70908 1.02407C2.81224 1.10442 2.88549 1.21684 2.91717 1.34345L3.39261 3.24002H17.0217C17.1109 3.24005 17.1989 3.26032 17.279 3.29929C17.3591 3.33826 17.4293 3.39491 17.4842 3.46495C17.539 3.53498 17.5772 3.61655 17.5957 3.70347C17.6142 3.79039 17.6127 3.88038 17.5911 3.96659L15.8302 10.9866C15.7985 11.1132 15.7253 11.2256 15.6221 11.306C15.519 11.3863 15.3918 11.43 15.2609 11.43H4.69565C4.56472 11.43 4.43757 11.3863 4.3344 11.306C4.23124 11.2256 4.15799 11.1132 4.1263 10.9866L1.89 2.07002H0.586957C0.431286 2.07002 0.281991 2.00839 0.171916 1.89868C0.0618399 1.78897 0 1.64018 0 1.48502ZM3.68609 4.41002L5.15348 10.26H14.803L16.2704 4.41002H3.68609ZM5.86957 13.77C5.55822 13.77 5.25963 13.8933 5.03948 14.1127C4.81933 14.3321 4.69565 14.6297 4.69565 14.94C4.69565 15.2503 4.81933 15.5479 5.03948 15.7673C5.25963 15.9868 5.55822 16.11 5.86957 16.11C6.18091 16.11 6.4795 15.9868 6.69965 15.7673C6.9198 15.5479 7.04348 15.2503 7.04348 14.94C7.04348 14.6297 6.9198 14.3321 6.69965 14.1127C6.4795 13.8933 6.18091 13.77 5.86957 13.77ZM3.52174 14.94C3.52174 14.3194 3.7691 13.7242 4.2094 13.2854C4.6497 12.8466 5.24688 12.6 5.86957 12.6C6.49225 12.6 7.08943 12.8466 7.52973 13.2854C7.97003 13.7242 8.21739 14.3194 8.21739 14.94C8.21739 15.5606 7.97003 16.1558 7.52973 16.5947C7.08943 17.0335 6.49225 17.28 5.86957 17.28C5.24688 17.28 4.6497 17.0335 4.2094 16.5947C3.7691 16.1558 3.52174 15.5606 3.52174 14.94ZM14.087 13.77C13.7756 13.77 13.477 13.8933 13.2569 14.1127C13.0367 14.3321 12.913 14.6297 12.913 14.94C12.913 15.2503 13.0367 15.5479 13.2569 15.7673C13.477 15.9868 13.7756 16.11 14.087 16.11C14.3983 16.11 14.6969 15.9868 14.917 15.7673C15.1372 15.5479 15.2609 15.2503 15.2609 14.94C15.2609 14.6297 15.1372 14.3321 14.917 14.1127C14.6969 13.8933 14.3983 13.77 14.087 13.77ZM11.7391 14.94C11.7391 14.3194 11.9865 13.7242 12.4268 13.2854C12.8671 12.8466 13.4643 12.6 14.087 12.6C14.7096 12.6 15.3068 12.8466 15.7471 13.2854C16.1874 13.7242 16.4348 14.3194 16.4348 14.94C16.4348 15.5606 16.1874 16.1558 15.7471 16.5947C15.3068 17.0335 14.7096 17.28 14.087 17.28C13.4643 17.28 12.8671 17.0335 12.4268 16.5947C11.9865 16.1558 11.7391 15.5606 11.7391 14.94Z" fill="white"/>
<path d="M0 1.48502C0 1.32987 0.0618399 1.18108 0.171916 1.07137C0.281991 0.961658 0.431286 0.900024 0.586957 0.900024H2.34783C2.47875 0.90006 2.60591 0.943725 2.70908 1.02407C2.81224 1.10442 2.88549 1.21684 2.91717 1.34345L3.39261 3.24002H17.0217C17.1109 3.24005 17.1989 3.26032 17.279 3.29929C17.3591 3.33826 17.4293 3.39491 17.4842 3.46495C17.539 3.53498 17.5772 3.61655 17.5957 3.70347C17.6142 3.79039 17.6127 3.88038 17.5911 3.96659L15.8302 10.9866C15.7985 11.1132 15.7253 11.2256 15.6221 11.306C15.519 11.3863 15.3918 11.43 15.2609 11.43H4.69565C4.56472 11.43 4.43757 11.3863 4.3344 11.306C4.23124 11.2256 4.15799 11.1132 4.1263 10.9866L1.89 2.07002H0.586957C0.431286 2.07002 0.281991 2.00839 0.171916 1.89868C0.0618399 1.78897 0 1.64018 0 1.48502ZM3.68609 4.41002L5.15348 10.26H14.803L16.2704 4.41002H3.68609ZM5.86957 13.77C5.55822 13.77 5.25963 13.8933 5.03948 14.1127C4.81933 14.3321 4.69565 14.6297 4.69565 14.94C4.69565 15.2503 4.81933 15.5479 5.03948 15.7673C5.25963 15.9868 5.55822 16.11 5.86957 16.11C6.18091 16.11 6.4795 15.9868 6.69965 15.7673C6.9198 15.5479 7.04348 15.2503 7.04348 14.94C7.04348 14.6297 6.9198 14.3321 6.69965 14.1127C6.4795 13.8933 6.18091 13.77 5.86957 13.77ZM3.52174 14.94C3.52174 14.3194 3.7691 13.7242 4.2094 13.2854C4.6497 12.8466 5.24688 12.6 5.86957 12.6C6.49225 12.6 7.08943 12.8466 7.52973 13.2854C7.97003 13.7242 8.21739 14.3194 8.21739 14.94C8.21739 15.5606 7.97003 16.1558 7.52973 16.5947C7.08943 17.0335 6.49225 17.28 5.86957 17.28C5.24688 17.28 4.6497 17.0335 4.2094 16.5947C3.7691 16.1558 3.52174 15.5606 3.52174 14.94ZM14.087 13.77C13.7756 13.77 13.477 13.8933 13.2569 14.1127C13.0367 14.3321 12.913 14.6297 12.913 14.94C12.913 15.2503 13.0367 15.5479 13.2569 15.7673C13.477 15.9868 13.7756 16.11 14.087 16.11C14.3983 16.11 14.6969 15.9868 14.917 15.7673C15.1372 15.5479 15.2609 15.2503 15.2609 14.94C15.2609 14.6297 15.1372 14.3321 14.917 14.1127C14.6969 13.8933 14.3983 13.77 14.087 13.77ZM11.7391 14.94C11.7391 14.3194 11.9865 13.7242 12.4268 13.2854C12.8671 12.8466 13.4643 12.6 14.087 12.6C14.7096 12.6 15.3068 12.8466 15.7471 13.2854C16.1874 13.7242 16.4348 14.3194 16.4348 14.94C16.4348 15.5606 16.1874 16.1558 15.7471 16.5947C15.3068 17.0335 14.7096 17.28 14.087 17.28C13.4643 17.28 12.8671 17.0335 12.4268 16.5947C11.9865 16.1558 11.7391 15.5606 11.7391 14.94Z" fill="white"/>
</svg>
