<svg width="22" height="22" viewBox="0 0 22 22" fill="none" xmlns="http://www.w3.org/2000/svg">
<path d="M18.6545 4.25454C18.1984 3.79688 17.6565 3.43376 17.0598 3.18598C16.4631 2.93821 15.8233 2.81067 15.1772 2.81067C14.5311 2.81067 13.8914 2.93821 13.2947 3.18598C12.6979 3.43376 12.156 3.79688 11.6999 4.25454L10.9999 4.96363L10.2999 4.25454C9.84387 3.79688 9.30195 3.43376 8.70524 3.18598C8.10853 2.93821 7.46878 2.81067 6.82267 2.81067C6.17657 2.81067 5.53682 2.93821 4.94011 3.18598C4.3434 3.43376 3.80147 3.79688 3.3454 4.25454C1.41813 6.18181 1.29995 9.43636 3.72722 11.9091L10.9999 19.1818L18.2727 11.9091C20.6999 9.43636 20.5818 6.18181 18.6545 4.25454Z" stroke="white" stroke-width="1.5" stroke-linecap="round" stroke-linejoin="round"/>
<path d="M18.6545 4.25454C18.1984 3.79688 17.6565 3.43376 17.0598 3.18598C16.4631 2.93821 15.8233 2.81067 15.1772 2.81067C14.5311 2.81067 13.8914 2.93821 13.2947 3.18598C12.6979 3.43376 12.156 3.79688 11.6999 4.25454L10.9999 4.96363L10.2999 4.25454C9.84387 3.79688 9.30195 3.43376 8.70524 3.18598C8.10853 2.93821 7.46878 2.81067 6.82267 2.81067C6.17657 2.81067 5.53682 2.93821 4.94011 3.18598C4.3434 3.43376 3.80147 3.79688 3.3454 4.25454C1.41813 6.18181 1.29995 9.43636 3.72722 11.9091L10.9999 19.1818L18.2727 11.9091C20.6999 9.43636 20.5818 6.18181 18.6545 4.25454Z" stroke="url(#paint0_linear_18_100)" stroke-width="1.5" stroke-linecap="round" stroke-linejoin="round"/>
<defs>
<linearGradient id="paint0_linear_18_100" x1="1.42362" y1="25.0047" x2="19.6422" y2="19.0306" gradientUnits="userSpaceOnUse">
<stop stop-color="#0D748B"/>
<stop offset="1" stop-color="#1A0B73"/>
</linearGradient>
</defs>
</svg>
