<svg width="16" height="16" viewBox="0 0 16 16" fill="none" xmlns="http://www.w3.org/2000/svg">
<g clip-path="url(#clip0_38_1568)">
<path d="M6.76445 9.17322C7.69222 10.1144 8.8148 10.841 10.0533 11.3021L11.7289 9.96877C11.7786 9.93456 11.8375 9.91625 11.8978 9.91625C11.9581 9.91625 12.017 9.93456 12.0667 9.96877L15.1778 11.9732C15.2959 12.0442 15.3959 12.1417 15.4698 12.258C15.5438 12.3743 15.5897 12.5062 15.6039 12.6433C15.6181 12.7803 15.6003 12.9189 15.5518 13.0479C15.5033 13.1768 15.4255 13.2928 15.3245 13.3865L13.8667 14.8266C13.6579 15.0328 13.4013 15.1842 13.1198 15.2672C12.8383 15.3502 12.5406 15.3622 12.2533 15.3021C9.38766 14.7102 6.74629 13.3241 4.63112 11.3021C2.56289 9.25999 1.13169 6.66159 0.511119 3.82211C0.449815 3.53928 0.46261 3.24541 0.548264 2.96898C0.633918 2.69256 0.789526 2.44294 1.00001 2.24433L2.51112 0.786551C2.60463 0.690456 2.71867 0.616762 2.8447 0.570985C2.97072 0.525209 3.10547 0.508537 3.23886 0.522217C3.37224 0.535897 3.5008 0.579576 3.61491 0.649982C3.72902 0.720388 3.82573 0.815697 3.89779 0.928773L5.9689 3.99988C6.00462 4.04811 6.0239 4.10654 6.0239 4.16655C6.0239 4.22657 6.00462 4.28499 5.9689 4.33322L4.60445 5.97322C5.07804 7.18697 5.81589 8.28007 6.76445 9.17322Z" fill="#18154B"/>
</g>
<defs>
<clipPath id="clip0_38_1568">
<rect width="16" height="16" fill="white"/>
</clipPath>
</defs>
</svg>
