<svg width="36" height="36" viewBox="0 0 36 36" fill="none" xmlns="http://www.w3.org/2000/svg">
<path fill-rule="evenodd" clip-rule="evenodd" d="M23.1521 1.71838C23.1521 0.770854 22.3826 0 21.4366 0H15.0559C14.1099 0 13.3403 0.770815 13.3403 1.71838V5.35796H23.1522L23.1521 1.71838ZM22.3975 28.1231V28.3299C22.3975 29.6463 23.4268 30.6774 24.7411 30.6774C25.3945 30.6774 25.999 30.4251 26.4432 29.9676C26.8751 29.5224 27.103 28.9311 27.085 28.3027C27.0847 28.2944 27.0847 28.2865 27.0847 28.2783V28.2781V28.1228C27.0847 26.8064 26.0553 25.7754 24.7411 25.7754C23.4268 25.7757 22.3975 26.8067 22.3975 28.1231L22.3975 28.1231ZM28.9885 35.9999H7.50495C6.08599 35.9999 4.93164 34.8438 4.93164 33.4224V6.98964C4.93164 5.56835 6.08591 4.41211 7.50495 4.41211H11.6254V6.21729C11.6254 6.69173 12.0096 7.07652 12.4832 7.07652H24.0102C24.4839 7.07652 24.8681 6.69169 24.8681 6.21729V4.41211H28.9885C30.4074 4.41211 31.5618 5.56827 31.5618 6.98964V33.4224C31.5618 34.8437 30.4075 35.9999 28.9885 35.9999ZM28.8002 28.2669V28.1233V28.1232C28.8002 27.0394 28.3845 26.0213 27.6294 25.2563C26.866 24.4833 25.8403 24.0574 24.7411 24.0574C23.6587 24.0574 22.6423 24.4738 21.8788 25.2302C21.1071 25.9946 20.6819 27.0222 20.6819 28.1232V28.3301C20.6819 29.4142 21.0977 30.4323 21.8528 31.197C22.6162 31.97 23.6419 32.3959 24.7411 32.3959C25.8623 32.3959 26.9036 31.959 27.6735 31.1654C28.428 30.3875 28.8281 29.3586 28.8002 28.2669ZM26.2279 11.1312H10.2666C9.79267 11.1312 9.40882 11.516 9.40882 11.9904C9.40882 12.4648 9.79302 12.8496 10.2666 12.8496H26.2279C26.7015 12.8496 27.0857 12.4648 27.0857 11.9904C27.0857 11.516 26.7015 11.1312 26.2279 11.1312ZM26.2279 17.3195H10.2666C9.79267 17.3195 9.40882 17.704 9.40882 18.1787C9.40882 18.6531 9.79302 19.0379 10.2666 19.0379H26.2279C26.7015 19.0379 27.0857 18.6531 27.0857 18.1787C27.0857 17.7043 26.7015 17.3195 26.2279 17.3195ZM16.4448 23.5077H10.2666C9.79267 23.5077 9.40882 23.8923 9.40882 24.367C9.40882 24.8414 9.79302 25.2262 10.2666 25.2262H16.4448C16.9185 25.2262 17.3026 24.8414 17.3026 24.367C17.3026 23.8925 16.9184 23.5077 16.4448 23.5077Z" fill="white"/>
<path fill-rule="evenodd" clip-rule="evenodd" d="M23.1521 1.71838C23.1521 0.770854 22.3826 0 21.4366 0H15.0559C14.1099 0 13.3403 0.770815 13.3403 1.71838V5.35796H23.1522L23.1521 1.71838ZM22.3975 28.1231V28.3299C22.3975 29.6463 23.4268 30.6774 24.7411 30.6774C25.3945 30.6774 25.999 30.4251 26.4432 29.9676C26.8751 29.5224 27.103 28.9311 27.085 28.3027C27.0847 28.2944 27.0847 28.2865 27.0847 28.2783V28.2781V28.1228C27.0847 26.8064 26.0553 25.7754 24.7411 25.7754C23.4268 25.7757 22.3975 26.8067 22.3975 28.1231L22.3975 28.1231ZM28.9885 35.9999H7.50495C6.08599 35.9999 4.93164 34.8438 4.93164 33.4224V6.98964C4.93164 5.56835 6.08591 4.41211 7.50495 4.41211H11.6254V6.21729C11.6254 6.69173 12.0096 7.07652 12.4832 7.07652H24.0102C24.4839 7.07652 24.8681 6.69169 24.8681 6.21729V4.41211H28.9885C30.4074 4.41211 31.5618 5.56827 31.5618 6.98964V33.4224C31.5618 34.8437 30.4075 35.9999 28.9885 35.9999ZM28.8002 28.2669V28.1233V28.1232C28.8002 27.0394 28.3845 26.0213 27.6294 25.2563C26.866 24.4833 25.8403 24.0574 24.7411 24.0574C23.6587 24.0574 22.6423 24.4738 21.8788 25.2302C21.1071 25.9946 20.6819 27.0222 20.6819 28.1232V28.3301C20.6819 29.4142 21.0977 30.4323 21.8528 31.197C22.6162 31.97 23.6419 32.3959 24.7411 32.3959C25.8623 32.3959 26.9036 31.959 27.6735 31.1654C28.428 30.3875 28.8281 29.3586 28.8002 28.2669ZM26.2279 11.1312H10.2666C9.79267 11.1312 9.40882 11.516 9.40882 11.9904C9.40882 12.4648 9.79302 12.8496 10.2666 12.8496H26.2279C26.7015 12.8496 27.0857 12.4648 27.0857 11.9904C27.0857 11.516 26.7015 11.1312 26.2279 11.1312ZM26.2279 17.3195H10.2666C9.79267 17.3195 9.40882 17.704 9.40882 18.1787C9.40882 18.6531 9.79302 19.0379 10.2666 19.0379H26.2279C26.7015 19.0379 27.0857 18.6531 27.0857 18.1787C27.0857 17.7043 26.7015 17.3195 26.2279 17.3195ZM16.4448 23.5077H10.2666C9.79267 23.5077 9.40882 23.8923 9.40882 24.367C9.40882 24.8414 9.79302 25.2262 10.2666 25.2262H16.4448C16.9185 25.2262 17.3026 24.8414 17.3026 24.367C17.3026 23.8925 16.9184 23.5077 16.4448 23.5077Z" fill="url(#paint0_linear_38_1536)"/>
<defs>
<linearGradient id="paint0_linear_38_1536" x1="4.23175" y1="48.8045" x2="32.4191" y2="42.6529" gradientUnits="userSpaceOnUse">
<stop stop-color="#0D748B"/>
<stop offset="1" stop-color="#1A0B73"/>
</linearGradient>
</defs>
</svg>
