<svg width="38" height="38" viewBox="0 0 38 38" fill="none" xmlns="http://www.w3.org/2000/svg">
<path fill-rule="evenodd" clip-rule="evenodd" d="M30.7472 0.0474593H30.2881L30.2565 0H29.7024C29.4356 0.0376242 29.1712 0.090347 28.9107 0.158175C27.9855 0.454177 27.2128 1.09956 26.758 1.95643C26.3032 2.81331 26.2026 3.81377 26.4774 4.74376C26.7519 5.67402 27.3804 6.45985 28.2281 6.93359C29.0761 7.40759 30.076 7.5316 31.014 7.27936C31.9523 7.02711 32.7543 6.41855 33.249 5.58393C33.7433 4.7491 33.8912 3.75447 33.6605 2.81254C33.5003 2.1173 33.139 1.48433 32.6208 0.992576C32.1028 0.500795 31.4513 0.172249 30.7472 0.0474593ZM8.64487 0.0474269H8.18582L8.15425 0.0316976H7.60015C7.33362 0.0706445 7.06945 0.12337 6.80847 0.189608C5.88322 0.48561 5.1106 1.13099 4.6558 1.98787C4.201 2.84474 4.10037 3.8452 4.37516 4.77547C4.64969 5.70546 5.27811 6.49156 6.12587 6.9653C6.97384 7.43903 7.97371 7.56304 8.91173 7.3108C9.85002 7.05855 10.6521 6.44999 11.1467 5.61537C11.6411 4.78081 11.7889 3.78618 11.5582 2.84398C11.4037 2.14298 11.0447 1.50308 10.5262 1.0055C10.0077 0.507654 9.35296 0.17434 8.64487 0.0474269ZM31.9507 16.3061L30.3676 16.401L30.3673 16.4007C30.5593 17.2562 30.6495 18.1314 30.6365 19.0079C30.6365 21.1813 30.0272 23.3112 28.877 25.1569C27.7272 27.0029 26.0824 28.4905 24.1292 29.4518C24.3838 29.567 24.6275 29.7046 24.8577 29.8627C25.1368 30.0302 25.4015 30.2204 25.6492 30.4313C27.6532 29.2695 29.3163 27.6027 30.4722 25.598C31.628 23.5931 32.2362 21.3206 32.2357 19.0078C32.2351 18.0998 32.1396 17.1943 31.9508 16.3061L31.9507 16.3061ZM7.34647 19.0079C7.34408 18.0813 7.45559 17.158 7.67914 16.2587H6.09597H6.0957C5.88676 17.1606 5.77525 18.0821 5.7633 19.0079C5.76065 21.3842 6.4005 23.7174 7.61542 25.7612C8.83034 27.8051 10.5755 29.4841 12.6662 30.621C12.9731 30.3526 13.3016 30.1093 13.648 29.8942L14.1546 29.594C12.122 28.6667 10.3997 27.1758 9.19241 25.2989C7.98544 23.4219 7.34451 21.2382 7.34641 19.0078L7.34647 19.0079ZM18.9995 5.83021C16.8482 5.8477 14.7337 6.39032 12.8405 7.4104C13.0938 7.53679 13.3314 7.67906 13.5847 7.83698C13.869 8.01742 14.1438 8.21269 14.408 8.42147C15.8549 7.7824 17.4171 7.44379 18.9995 7.42602C20.6348 7.41119 22.254 7.74529 23.7493 8.4058C23.9601 8.23808 24.1823 8.08494 24.4144 7.94743C24.7046 7.74262 25.0117 7.56272 25.3328 7.41037C23.3898 6.35666 21.2107 5.81295 18.9995 5.83018L18.9995 5.83021ZM15.8328 13.0667C15.8352 13.387 15.7293 13.6986 15.532 13.9514C15.3207 14.2076 15.0629 14.4219 14.7721 14.5833C14.1368 14.9362 13.4544 15.1969 12.7456 15.3577C11.1537 15.6646 9.53759 15.8283 7.91642 15.8474H7.75819C7.31481 15.8474 6.74479 15.8474 6.17502 15.7525C5.16373 15.695 4.15828 15.5631 3.16664 15.3578C2.43463 15.207 1.73001 14.9458 1.07663 14.5833C0.778479 14.4264 0.514839 14.2116 0.30085 13.9514C0.103588 13.6986 -0.00234623 13.387 3.94296e-05 13.0667C0.00720797 12.3145 0.151906 11.5703 0.427495 10.8705C0.92079 9.72454 1.76272 8.7628 2.83423 8.12108C3.20619 7.88687 3.59805 7.68576 4.00585 7.5207C4.21374 7.41127 4.46278 7.41127 4.67066 7.5207C5.06333 7.76763 5.48307 7.96926 5.9214 8.12108C7.23616 8.56435 8.66002 8.56435 9.97478 8.12108C10.4168 7.96608 10.8414 7.76472 11.2412 7.5207C11.4494 7.41127 11.6981 7.41127 11.9063 7.5207L12.2546 7.67861C12.5337 7.80711 12.8037 7.95495 13.062 8.12108C13.3201 8.2729 13.5638 8.4475 13.7903 8.6425C14.5236 9.23759 15.0998 10.0023 15.4688 10.8705C15.7226 11.5742 15.846 12.3185 15.8328 13.0667L15.8328 13.0667ZM37.999 13.1617C38.0014 13.4821 37.8955 13.7939 37.6982 14.0467C37.4842 14.3069 37.2206 14.5218 36.9224 14.6786C36.2969 15.0405 35.6183 15.3018 34.9115 15.4528C33.9053 15.6724 32.8839 15.815 31.8559 15.8794C31.5129 15.8794 31.1845 15.9086 30.8926 15.9347L30.8925 15.9347C30.6589 15.9555 30.4486 15.9742 30.2727 15.9742H30.0826C28.4499 15.948 26.8228 15.7734 25.2219 15.4528C24.5109 15.2991 23.8274 15.0381 23.1953 14.6786C22.9046 14.5173 22.6468 14.3029 22.4355 14.0467C22.2435 13.7929 22.1482 13.4794 22.1663 13.1617C22.1732 12.4098 22.3181 11.6655 22.5937 10.9655C22.971 10.0718 23.5705 9.28862 24.3354 8.69038C24.5438 8.51472 24.766 8.35627 25.0002 8.21637C25.2872 8.04283 25.5832 7.88465 25.887 7.74237L26.1562 7.61599C26.3641 7.5063 26.6128 7.5063 26.821 7.61599C27.2208 7.86001 27.6454 8.06111 28.0877 8.21637C29.4022 8.65937 30.8263 8.65937 32.1408 8.21637C32.5781 8.06111 32.9973 7.86001 33.3915 7.61599C33.5997 7.5063 33.8485 7.5063 34.0566 7.61599C34.4642 7.78105 34.8563 7.98188 35.2282 8.21637C36.2995 8.85809 37.1417 9.8199 37.6347 10.9655C37.8888 11.6695 38.0122 12.4138 37.999 13.1617L37.999 13.1617ZM27.1847 35.1875C27.1871 35.5078 27.0812 35.8197 26.8839 36.0724C26.6699 36.3324 26.4063 36.5472 26.1081 36.7044C25.4794 37.0594 24.8019 37.3204 24.0972 37.4785C22.496 37.7978 20.8693 37.9724 19.2367 38C17.6039 37.9737 15.9769 37.7991 14.376 37.4785C13.6671 37.3177 12.9847 37.057 12.3494 36.7044C12.0587 36.543 11.8009 36.3287 11.5893 36.0724C11.3862 35.8229 11.2795 35.5089 11.2885 35.1875C11.2943 34.4406 11.4393 33.7011 11.7159 33.0072C12.0444 32.2067 12.5538 31.493 13.2043 30.9214C13.4939 30.6737 13.8009 30.4466 14.1227 30.2421L14.7718 29.8786L15.2784 29.6414V29.6417C15.4865 29.532 15.7353 29.532 15.9435 29.6417C16.3393 29.8825 16.7583 30.0836 17.1942 30.2421C17.8537 30.4572 18.5427 30.5693 19.2367 30.5738C19.9254 30.5704 20.6093 30.4585 21.2632 30.2421C21.6989 30.0836 22.1178 29.8825 22.514 29.6417C22.7218 29.532 22.9709 29.532 23.1788 29.6417L23.4796 29.7681C23.7783 29.9104 24.069 30.0685 24.3504 30.2421C24.606 30.4032 24.8495 30.5825 25.0786 30.7791C25.8192 31.3671 26.3969 32.1339 26.7571 33.0072C27.0338 33.701 27.1787 34.4406 27.1846 35.1875H27.1847ZM19.9337 22.168H19.4746L19.5537 22.168H18.9996C18.6967 22.1852 18.3953 22.2223 18.0972 22.2784C17.1719 22.5744 16.3993 23.2198 15.9445 24.0767C15.4897 24.9338 15.3891 25.9343 15.6639 26.8643C15.9384 27.7943 16.5668 28.5804 17.4146 29.0541C18.2626 29.5279 19.2624 29.6519 20.2005 29.3996C21.1387 29.1474 21.9408 28.5388 22.4354 27.7042C22.9298 26.8696 23.0777 25.875 22.847 24.9331C22.6868 24.2376 22.3255 23.6046 21.8073 23.1128C21.2893 22.6211 20.6377 22.2925 19.9337 22.168Z" fill="white"/>
<path fill-rule="evenodd" clip-rule="evenodd" d="M30.7472 0.0474593H30.2881L30.2565 0H29.7024C29.4356 0.0376242 29.1712 0.090347 28.9107 0.158175C27.9855 0.454177 27.2128 1.09956 26.758 1.95643C26.3032 2.81331 26.2026 3.81377 26.4774 4.74376C26.7519 5.67402 27.3804 6.45985 28.2281 6.93359C29.0761 7.40759 30.076 7.5316 31.014 7.27936C31.9523 7.02711 32.7543 6.41855 33.249 5.58393C33.7433 4.7491 33.8912 3.75447 33.6605 2.81254C33.5003 2.1173 33.139 1.48433 32.6208 0.992576C32.1028 0.500795 31.4513 0.172249 30.7472 0.0474593ZM8.64487 0.0474269H8.18582L8.15425 0.0316976H7.60015C7.33362 0.0706445 7.06945 0.12337 6.80847 0.189608C5.88322 0.48561 5.1106 1.13099 4.6558 1.98787C4.201 2.84474 4.10037 3.8452 4.37516 4.77547C4.64969 5.70546 5.27811 6.49156 6.12587 6.9653C6.97384 7.43903 7.97371 7.56304 8.91173 7.3108C9.85002 7.05855 10.6521 6.44999 11.1467 5.61537C11.6411 4.78081 11.7889 3.78618 11.5582 2.84398C11.4037 2.14298 11.0447 1.50308 10.5262 1.0055C10.0077 0.507654 9.35296 0.17434 8.64487 0.0474269ZM31.9507 16.3061L30.3676 16.401L30.3673 16.4007C30.5593 17.2562 30.6495 18.1314 30.6365 19.0079C30.6365 21.1813 30.0272 23.3112 28.877 25.1569C27.7272 27.0029 26.0824 28.4905 24.1292 29.4518C24.3838 29.567 24.6275 29.7046 24.8577 29.8627C25.1368 30.0302 25.4015 30.2204 25.6492 30.4313C27.6532 29.2695 29.3163 27.6027 30.4722 25.598C31.628 23.5931 32.2362 21.3206 32.2357 19.0078C32.2351 18.0998 32.1396 17.1943 31.9508 16.3061L31.9507 16.3061ZM7.34647 19.0079C7.34408 18.0813 7.45559 17.158 7.67914 16.2587H6.09597H6.0957C5.88676 17.1606 5.77525 18.0821 5.7633 19.0079C5.76065 21.3842 6.4005 23.7174 7.61542 25.7612C8.83034 27.8051 10.5755 29.4841 12.6662 30.621C12.9731 30.3526 13.3016 30.1093 13.648 29.8942L14.1546 29.594C12.122 28.6667 10.3997 27.1758 9.19241 25.2989C7.98544 23.4219 7.34451 21.2382 7.34641 19.0078L7.34647 19.0079ZM18.9995 5.83021C16.8482 5.8477 14.7337 6.39032 12.8405 7.4104C13.0938 7.53679 13.3314 7.67906 13.5847 7.83698C13.869 8.01742 14.1438 8.21269 14.408 8.42147C15.8549 7.7824 17.4171 7.44379 18.9995 7.42602C20.6348 7.41119 22.254 7.74529 23.7493 8.4058C23.9601 8.23808 24.1823 8.08494 24.4144 7.94743C24.7046 7.74262 25.0117 7.56272 25.3328 7.41037C23.3898 6.35666 21.2107 5.81295 18.9995 5.83018L18.9995 5.83021ZM15.8328 13.0667C15.8352 13.387 15.7293 13.6986 15.532 13.9514C15.3207 14.2076 15.0629 14.4219 14.7721 14.5833C14.1368 14.9362 13.4544 15.1969 12.7456 15.3577C11.1537 15.6646 9.53759 15.8283 7.91642 15.8474H7.75819C7.31481 15.8474 6.74479 15.8474 6.17502 15.7525C5.16373 15.695 4.15828 15.5631 3.16664 15.3578C2.43463 15.207 1.73001 14.9458 1.07663 14.5833C0.778479 14.4264 0.514839 14.2116 0.30085 13.9514C0.103588 13.6986 -0.00234623 13.387 3.94296e-05 13.0667C0.00720797 12.3145 0.151906 11.5703 0.427495 10.8705C0.92079 9.72454 1.76272 8.7628 2.83423 8.12108C3.20619 7.88687 3.59805 7.68576 4.00585 7.5207C4.21374 7.41127 4.46278 7.41127 4.67066 7.5207C5.06333 7.76763 5.48307 7.96926 5.9214 8.12108C7.23616 8.56435 8.66002 8.56435 9.97478 8.12108C10.4168 7.96608 10.8414 7.76472 11.2412 7.5207C11.4494 7.41127 11.6981 7.41127 11.9063 7.5207L12.2546 7.67861C12.5337 7.80711 12.8037 7.95495 13.062 8.12108C13.3201 8.2729 13.5638 8.4475 13.7903 8.6425C14.5236 9.23759 15.0998 10.0023 15.4688 10.8705C15.7226 11.5742 15.846 12.3185 15.8328 13.0667L15.8328 13.0667ZM37.999 13.1617C38.0014 13.4821 37.8955 13.7939 37.6982 14.0467C37.4842 14.3069 37.2206 14.5218 36.9224 14.6786C36.2969 15.0405 35.6183 15.3018 34.9115 15.4528C33.9053 15.6724 32.8839 15.815 31.8559 15.8794C31.5129 15.8794 31.1845 15.9086 30.8926 15.9347L30.8925 15.9347C30.6589 15.9555 30.4486 15.9742 30.2727 15.9742H30.0826C28.4499 15.948 26.8228 15.7734 25.2219 15.4528C24.5109 15.2991 23.8274 15.0381 23.1953 14.6786C22.9046 14.5173 22.6468 14.3029 22.4355 14.0467C22.2435 13.7929 22.1482 13.4794 22.1663 13.1617C22.1732 12.4098 22.3181 11.6655 22.5937 10.9655C22.971 10.0718 23.5705 9.28862 24.3354 8.69038C24.5438 8.51472 24.766 8.35627 25.0002 8.21637C25.2872 8.04283 25.5832 7.88465 25.887 7.74237L26.1562 7.61599C26.3641 7.5063 26.6128 7.5063 26.821 7.61599C27.2208 7.86001 27.6454 8.06111 28.0877 8.21637C29.4022 8.65937 30.8263 8.65937 32.1408 8.21637C32.5781 8.06111 32.9973 7.86001 33.3915 7.61599C33.5997 7.5063 33.8485 7.5063 34.0566 7.61599C34.4642 7.78105 34.8563 7.98188 35.2282 8.21637C36.2995 8.85809 37.1417 9.8199 37.6347 10.9655C37.8888 11.6695 38.0122 12.4138 37.999 13.1617L37.999 13.1617ZM27.1847 35.1875C27.1871 35.5078 27.0812 35.8197 26.8839 36.0724C26.6699 36.3324 26.4063 36.5472 26.1081 36.7044C25.4794 37.0594 24.8019 37.3204 24.0972 37.4785C22.496 37.7978 20.8693 37.9724 19.2367 38C17.6039 37.9737 15.9769 37.7991 14.376 37.4785C13.6671 37.3177 12.9847 37.057 12.3494 36.7044C12.0587 36.543 11.8009 36.3287 11.5893 36.0724C11.3862 35.8229 11.2795 35.5089 11.2885 35.1875C11.2943 34.4406 11.4393 33.7011 11.7159 33.0072C12.0444 32.2067 12.5538 31.493 13.2043 30.9214C13.4939 30.6737 13.8009 30.4466 14.1227 30.2421L14.7718 29.8786L15.2784 29.6414V29.6417C15.4865 29.532 15.7353 29.532 15.9435 29.6417C16.3393 29.8825 16.7583 30.0836 17.1942 30.2421C17.8537 30.4572 18.5427 30.5693 19.2367 30.5738C19.9254 30.5704 20.6093 30.4585 21.2632 30.2421C21.6989 30.0836 22.1178 29.8825 22.514 29.6417C22.7218 29.532 22.9709 29.532 23.1788 29.6417L23.4796 29.7681C23.7783 29.9104 24.069 30.0685 24.3504 30.2421C24.606 30.4032 24.8495 30.5825 25.0786 30.7791C25.8192 31.3671 26.3969 32.1339 26.7571 33.0072C27.0338 33.701 27.1787 34.4406 27.1846 35.1875H27.1847ZM19.9337 22.168H19.4746L19.5537 22.168H18.9996C18.6967 22.1852 18.3953 22.2223 18.0972 22.2784C17.1719 22.5744 16.3993 23.2198 15.9445 24.0767C15.4897 24.9338 15.3891 25.9343 15.6639 26.8643C15.9384 27.7943 16.5668 28.5804 17.4146 29.0541C18.2626 29.5279 19.2624 29.6519 20.2005 29.3996C21.1387 29.1474 21.9408 28.5388 22.4354 27.7042C22.9298 26.8696 23.0777 25.875 22.847 24.9331C22.6868 24.2376 22.3255 23.6046 21.8073 23.1128C21.2893 22.6211 20.6377 22.2925 19.9337 22.168Z" fill="url(#paint0_linear_38_1556)"/>
<defs>
<linearGradient id="paint0_linear_38_1556" x1="-0.998716" y1="51.5159" x2="37.7651" y2="40.0796" gradientUnits="userSpaceOnUse">
<stop stop-color="#0D748B"/>
<stop offset="1" stop-color="#1A0B73"/>
</linearGradient>
</defs>
</svg>
