<svg width="36" height="36" viewBox="0 0 36 36" fill="none" xmlns="http://www.w3.org/2000/svg">
<path fill-rule="evenodd" clip-rule="evenodd" d="M32.6489 7.5408C28.5835 1.8468 21.8108 -0.768289 15.3345 0.196118L18.7887 17.0995L35.9974 18.2892C36.0603 14.5704 34.9758 10.7999 32.6489 7.5408ZM3.35215 28.4587C9.12877 36.5486 20.3695 38.4242 28.4598 32.648C32.7337 29.5967 35.2722 25.0198 35.8657 20.1886L17.1976 18.8942L13.4663 0.577637C11.3955 1.11625 9.38674 2.03433 7.54146 3.35154C-0.548782 9.12807 -2.42422 20.3693 3.35215 28.4587Z" fill="white"/>
<path fill-rule="evenodd" clip-rule="evenodd" d="M32.6489 7.5408C28.5835 1.8468 21.8108 -0.768289 15.3345 0.196118L18.7887 17.0995L35.9974 18.2892C36.0603 14.5704 34.9758 10.7999 32.6489 7.5408ZM3.35215 28.4587C9.12877 36.5486 20.3695 38.4242 28.4598 32.648C32.7337 29.5967 35.2722 25.0198 35.8657 20.1886L17.1976 18.8942L13.4663 0.577637C11.3955 1.11625 9.38674 2.03433 7.54146 3.35154C-0.548782 9.12807 -2.42422 20.3693 3.35215 28.4587Z" fill="url(#paint0_linear_38_1541)"/>
<defs>
<linearGradient id="paint0_linear_38_1541" x1="-0.946153" y1="48.8045" x2="35.7775" y2="37.9702" gradientUnits="userSpaceOnUse">
<stop stop-color="#0D748B"/>
<stop offset="1" stop-color="#1A0B73"/>
</linearGradient>
</defs>
</svg>
