<svg width="36" height="37" viewBox="0 0 36 37" fill="none" xmlns="http://www.w3.org/2000/svg">
<path fill-rule="evenodd" clip-rule="evenodd" d="M34.3944 1.04405L35.35 2.01595L35.3499 2.01606C36.6796 3.36853 35.7655 6.49553 34.4361 7.848L27.9131 13.9756L29.9074 28.3017C29.9906 28.8933 29.6999 29.7806 29.2843 30.2033L28.0378 31.4712C27.5807 31.8936 27.0408 31.8093 26.7498 31.2598L21.4731 20.5681L12.374 28.0057L13.5374 32.908C13.5788 33.4996 13.2467 34.3869 12.8311 34.8096L11.5845 36.0774C11.169 36.5423 10.5459 36.4577 10.2134 35.9507L8.30206 29.9498C7.9696 29.4427 7.26334 28.7244 6.76485 28.3862L0.407935 26.0198C-0.0905569 25.6817 -0.13229 25.0479 0.283313 24.6252L1.52984 23.3573C1.9451 22.9349 2.77634 22.5968 3.39945 22.6389L8.46836 23.8643L15.6979 14.6939L4.97836 9.20008C4.43813 8.90442 4.35496 8.31282 4.77056 7.8901L6.01709 6.62223C6.43235 6.19982 7.26358 5.90385 7.88669 5.98846L22.6779 8.05926L28.6607 1.97377C29.9904 0.621334 33.0648 -0.308413 34.3944 1.04405ZM33.062 6.29278C33.2166 6.64654 33.2905 6.81562 33.4389 6.66469L33.4389 6.66476C34.353 5.73504 34.3944 4.76314 33.5635 3.96013L32.4001 2.77685C31.5692 1.93174 30.6137 1.93174 29.6996 2.86145C29.5537 3.00984 29.696 3.06869 30.0105 3.19878C30.4125 3.36508 31.0959 3.6478 31.8185 4.38281C32.5545 5.13136 32.8703 5.85407 33.062 6.29278ZM15.2406 6.24189L18.4814 6.70676C18.7306 6.74891 18.9384 6.62216 19.0216 6.4108V6.36864C19.1877 5.86161 19.0631 5.22755 18.6477 4.84729L18.2321 4.42457C17.6505 3.83295 16.6949 3.83295 16.0716 4.42457L15.0328 5.86133C14.8668 6.03083 14.95 6.19974 15.2406 6.24189ZM31.1123 17.2717C30.6967 16.8489 30.1151 16.7222 29.6166 16.8914H29.5752C29.4091 16.976 29.2842 17.1449 29.2842 17.3563V17.483L29.6166 19.9763V20.0184L29.6998 20.7368C29.7412 21.0328 29.9076 21.1171 30.1154 20.9482L31.528 19.8917C32.1096 19.3001 32.1096 18.3281 31.528 17.6941L31.1123 17.2717Z" fill="white"/>
<path fill-rule="evenodd" clip-rule="evenodd" d="M34.3944 1.04405L35.35 2.01595L35.3499 2.01606C36.6796 3.36853 35.7655 6.49553 34.4361 7.848L27.9131 13.9756L29.9074 28.3017C29.9906 28.8933 29.6999 29.7806 29.2843 30.2033L28.0378 31.4712C27.5807 31.8936 27.0408 31.8093 26.7498 31.2598L21.4731 20.5681L12.374 28.0057L13.5374 32.908C13.5788 33.4996 13.2467 34.3869 12.8311 34.8096L11.5845 36.0774C11.169 36.5423 10.5459 36.4577 10.2134 35.9507L8.30206 29.9498C7.9696 29.4427 7.26334 28.7244 6.76485 28.3862L0.407935 26.0198C-0.0905569 25.6817 -0.13229 25.0479 0.283313 24.6252L1.52984 23.3573C1.9451 22.9349 2.77634 22.5968 3.39945 22.6389L8.46836 23.8643L15.6979 14.6939L4.97836 9.20008C4.43813 8.90442 4.35496 8.31282 4.77056 7.8901L6.01709 6.62223C6.43235 6.19982 7.26358 5.90385 7.88669 5.98846L22.6779 8.05926L28.6607 1.97377C29.9904 0.621334 33.0648 -0.308413 34.3944 1.04405ZM33.062 6.29278C33.2166 6.64654 33.2905 6.81562 33.4389 6.66469L33.4389 6.66476C34.353 5.73504 34.3944 4.76314 33.5635 3.96013L32.4001 2.77685C31.5692 1.93174 30.6137 1.93174 29.6996 2.86145C29.5537 3.00984 29.696 3.06869 30.0105 3.19878C30.4125 3.36508 31.0959 3.6478 31.8185 4.38281C32.5545 5.13136 32.8703 5.85407 33.062 6.29278ZM15.2406 6.24189L18.4814 6.70676C18.7306 6.74891 18.9384 6.62216 19.0216 6.4108V6.36864C19.1877 5.86161 19.0631 5.22755 18.6477 4.84729L18.2321 4.42457C17.6505 3.83295 16.6949 3.83295 16.0716 4.42457L15.0328 5.86133C14.8668 6.03083 14.95 6.19974 15.2406 6.24189ZM31.1123 17.2717C30.6967 16.8489 30.1151 16.7222 29.6166 16.8914H29.5752C29.4091 16.976 29.2842 17.1449 29.2842 17.3563V17.483L29.6166 19.9763V20.0184L29.6998 20.7368C29.7412 21.0328 29.9076 21.1171 30.1154 20.9482L31.528 19.8917C32.1096 19.3001 32.1096 18.3281 31.528 17.6941L31.1123 17.2717Z" fill="url(#paint0_linear_38_1545)"/>
<defs>
<linearGradient id="paint0_linear_38_1545" x1="-0.946153" y1="49.1874" x2="35.7775" y2="38.353" gradientUnits="userSpaceOnUse">
<stop stop-color="#0D748B"/>
<stop offset="1" stop-color="#1A0B73"/>
</linearGradient>
</defs>
</svg>
