<svg width="36" height="36" viewBox="0 0 36 36" fill="none" xmlns="http://www.w3.org/2000/svg">
<path fill-rule="evenodd" clip-rule="evenodd" d="M7.50278 6.99029H7.67428C8.50261 6.99029 9.17647 6.34742 9.17647 5.5572L9.17618 1.43309C9.17589 0.642859 8.50202 0 7.67369 0H7.50219C6.67386 0 6 0.642873 6 1.43309V5.55748C6.00058 6.34743 6.67445 6.99029 7.50278 6.99029ZM30.7454 5.37492V3.14551H32.4063C34.3876 3.14551 36 4.75089 36 6.72447V9.43677H0V6.72447C0 4.75118 1.61212 3.14551 3.59399 3.14551H4.83064V5.37492C4.83064 5.4755 4.83799 5.57411 4.84931 5.67188C4.99786 6.94901 6.08907 7.94414 7.41061 7.94414H7.57866C8.90049 7.94414 9.99143 6.94901 10.14 5.67188C10.1513 5.57411 10.1586 5.4755 10.1586 5.37492V3.14551L25.4179 3.14579V5.3752C25.4179 5.47578 25.4253 5.57439 25.4366 5.67216C25.5852 6.9493 26.6764 7.94442 27.9979 7.94442L28.1654 7.94414C29.4872 7.94414 30.5782 6.94901 30.7267 5.67188C30.738 5.57411 30.7454 5.4755 30.7454 5.37492ZM0 11.1846H2.53698H36V27.8376C36 28.7049 35.6681 29.5287 35.0663 30.1575L30.4727 34.9518C29.8347 35.6185 28.937 36.0001 28.0107 36.0001H3.59402C1.61242 36.0001 0 34.4016 0 32.4361V11.1846ZM34.037 27.5399C34.166 27.4044 34.0689 27.1811 33.8808 27.1811L29.503 27.1811C28.2242 27.1811 27.1777 28.219 27.1777 29.4872V34.2072C27.1777 34.3994 27.4148 34.4931 27.5483 34.3531L28.6042 33.2445L33.3429 28.2689L34.037 27.5399ZM28.1447 6.99029H27.9732C27.145 6.99029 26.471 6.34743 26.4707 5.55748V1.43309C26.4707 0.642873 27.1447 0 27.9732 0H28.1441C28.9726 0 29.6466 0.642859 29.6469 1.43309L29.6472 5.5572C29.6472 6.34742 28.9732 6.99029 28.1447 6.99029Z" fill="white"/>
<path fill-rule="evenodd" clip-rule="evenodd" d="M7.50278 6.99029H7.67428C8.50261 6.99029 9.17647 6.34742 9.17647 5.5572L9.17618 1.43309C9.17589 0.642859 8.50202 0 7.67369 0H7.50219C6.67386 0 6 0.642873 6 1.43309V5.55748C6.00058 6.34743 6.67445 6.99029 7.50278 6.99029ZM30.7454 5.37492V3.14551H32.4063C34.3876 3.14551 36 4.75089 36 6.72447V9.43677H0V6.72447C0 4.75118 1.61212 3.14551 3.59399 3.14551H4.83064V5.37492C4.83064 5.4755 4.83799 5.57411 4.84931 5.67188C4.99786 6.94901 6.08907 7.94414 7.41061 7.94414H7.57866C8.90049 7.94414 9.99143 6.94901 10.14 5.67188C10.1513 5.57411 10.1586 5.4755 10.1586 5.37492V3.14551L25.4179 3.14579V5.3752C25.4179 5.47578 25.4253 5.57439 25.4366 5.67216C25.5852 6.9493 26.6764 7.94442 27.9979 7.94442L28.1654 7.94414C29.4872 7.94414 30.5782 6.94901 30.7267 5.67188C30.738 5.57411 30.7454 5.4755 30.7454 5.37492ZM0 11.1846H2.53698H36V27.8376C36 28.7049 35.6681 29.5287 35.0663 30.1575L30.4727 34.9518C29.8347 35.6185 28.937 36.0001 28.0107 36.0001H3.59402C1.61242 36.0001 0 34.4016 0 32.4361V11.1846ZM34.037 27.5399C34.166 27.4044 34.0689 27.1811 33.8808 27.1811L29.503 27.1811C28.2242 27.1811 27.1777 28.219 27.1777 29.4872V34.2072C27.1777 34.3994 27.4148 34.4931 27.5483 34.3531L28.6042 33.2445L33.3429 28.2689L34.037 27.5399ZM28.1447 6.99029H27.9732C27.145 6.99029 26.471 6.34743 26.4707 5.55748V1.43309C26.4707 0.642873 27.1447 0 27.9732 0H28.1441C28.9726 0 29.6466 0.642859 29.6469 1.43309L29.6472 5.5572C29.6472 6.34742 28.9732 6.99029 28.1447 6.99029Z" fill="url(#paint0_linear_38_1550)"/>
<defs>
<linearGradient id="paint0_linear_38_1550" x1="-0.946153" y1="48.8047" x2="35.7775" y2="37.9704" gradientUnits="userSpaceOnUse">
<stop stop-color="#0D748B"/>
<stop offset="1" stop-color="#1A0B73"/>
</linearGradient>
</defs>
</svg>
