<svg width="36" height="36" viewBox="0 0 36 36" fill="none" xmlns="http://www.w3.org/2000/svg">
<path fill-rule="evenodd" clip-rule="evenodd" d="M0 9.87642C0 7.59221 1.86673 5.71436 4.13681 5.71436H21.8366C24.107 5.71436 25.9734 7.59249 25.9734 9.87642V26.1237C25.9734 28.4079 24.1067 30.2858 21.8366 30.2858H4.13681C1.86673 30.2858 0 28.4077 0 26.1237V9.87642ZM5.65104 11.1118C5.42709 10.8865 5.1236 10.7593 4.80699 10.7582L4.80711 10.7582C4.48886 10.7569 4.18324 10.883 3.95717 11.1086C3.73136 11.3339 3.60386 11.6406 3.60252 11.9608V17.995C3.60118 18.317 3.72787 18.6259 3.95395 18.8536C4.18 19.0811 4.48723 19.2085 4.80705 19.2072C5.12551 19.2058 5.43006 19.0776 5.65426 18.8501C5.87846 18.6229 6.00381 18.3154 6.00247 17.995V11.9607C6.00114 11.6421 5.875 11.3371 5.65104 11.1118ZM32.3249 9.76011C32.5788 9.62348 32.8647 9.54829 33.1475 9.52673L33.1475 9.52693C33.4304 9.50537 33.7092 9.53609 33.9538 9.61641C34.4426 9.77675 34.8115 10.0683 35.0975 10.3923C35.6697 11.0399 36 11.833 36 12.7361L35.9997 23.262C35.9997 24.1438 35.6756 24.9377 35.1067 25.5705C34.5377 26.2033 33.4799 26.6919 32.4653 26.3016L28.3732 24.7289V11.8918L32.3249 9.76011Z" fill="white"/>
<path fill-rule="evenodd" clip-rule="evenodd" d="M0 9.87642C0 7.59221 1.86673 5.71436 4.13681 5.71436H21.8366C24.107 5.71436 25.9734 7.59249 25.9734 9.87642V26.1237C25.9734 28.4079 24.1067 30.2858 21.8366 30.2858H4.13681C1.86673 30.2858 0 28.4077 0 26.1237V9.87642ZM5.65104 11.1118C5.42709 10.8865 5.1236 10.7593 4.80699 10.7582L4.80711 10.7582C4.48886 10.7569 4.18324 10.883 3.95717 11.1086C3.73136 11.3339 3.60386 11.6406 3.60252 11.9608V17.995C3.60118 18.317 3.72787 18.6259 3.95395 18.8536C4.18 19.0811 4.48723 19.2085 4.80705 19.2072C5.12551 19.2058 5.43006 19.0776 5.65426 18.8501C5.87846 18.6229 6.00381 18.3154 6.00247 17.995V11.9607C6.00114 11.6421 5.875 11.3371 5.65104 11.1118ZM32.3249 9.76011C32.5788 9.62348 32.8647 9.54829 33.1475 9.52673L33.1475 9.52693C33.4304 9.50537 33.7092 9.53609 33.9538 9.61641C34.4426 9.77675 34.8115 10.0683 35.0975 10.3923C35.6697 11.0399 36 11.833 36 12.7361L35.9997 23.262C35.9997 24.1438 35.6756 24.9377 35.1067 25.5705C34.5377 26.2033 33.4799 26.6919 32.4653 26.3016L28.3732 24.7289V11.8918L32.3249 9.76011Z" fill="url(#paint0_linear_38_1531)"/>
<defs>
<linearGradient id="paint0_linear_38_1531" x1="-0.946152" y1="39.0254" x2="32.6895" y2="24.4866" gradientUnits="userSpaceOnUse">
<stop stop-color="#0D748B"/>
<stop offset="1" stop-color="#1A0B73"/>
</linearGradient>
</defs>
</svg>
