<svg width="22" height="22" viewBox="0 0 22 22" fill="none" xmlns="http://www.w3.org/2000/svg">
<g id="Cart2">
<g id="Vector">
<path d="M0 1.815C0 1.62537 0.0755821 1.44351 0.210119 1.30942C0.344656 1.17533 0.527127 1.1 0.717391 1.1H2.86957C3.02959 1.10004 3.185 1.15341 3.31109 1.25161C3.43718 1.34982 3.52671 1.48722 3.56543 1.64197L4.14652 3.96H20.8043C20.9133 3.96003 21.0208 3.9848 21.1188 4.03243C21.2167 4.08006 21.3025 4.14931 21.3695 4.2349C21.4366 4.3205 21.4832 4.4202 21.5059 4.52643C21.5285 4.63267 21.5266 4.74265 21.5002 4.84803L19.348 13.428C19.3093 13.5828 19.2198 13.7202 19.0937 13.8184C18.9676 13.9166 18.8122 13.97 18.6522 13.97H5.73913C5.57911 13.97 5.42369 13.9166 5.2976 13.8184C5.17151 13.7202 5.08199 13.5828 5.04326 13.428L2.31 2.53H0.717391C0.527127 2.53 0.344656 2.45467 0.210119 2.32058C0.0755821 2.18649 0 2.00463 0 1.815ZM4.50522 5.39L6.2987 12.54H18.0926L19.8861 5.39H4.50522ZM7.17391 16.83C6.79338 16.83 6.42844 16.9807 6.15937 17.2488C5.89029 17.517 5.73913 17.8807 5.73913 18.26C5.73913 18.6393 5.89029 19.003 6.15937 19.2712C6.42844 19.5393 6.79338 19.69 7.17391 19.69C7.55444 19.69 7.91938 19.5393 8.18846 19.2712C8.45753 19.003 8.6087 18.6393 8.6087 18.26C8.6087 17.8807 8.45753 17.517 8.18846 17.2488C7.91938 16.9807 7.55444 16.83 7.17391 16.83ZM4.30435 18.26C4.30435 17.5015 4.60668 16.774 5.14482 16.2377C5.68297 15.7013 6.41286 15.4 7.17391 15.4C7.93497 15.4 8.66485 15.7013 9.203 16.2377C9.74115 16.774 10.0435 17.5015 10.0435 18.26C10.0435 19.0185 9.74115 19.746 9.203 20.2823C8.66485 20.8187 7.93497 21.12 7.17391 21.12C6.41286 21.12 5.68297 20.8187 5.14482 20.2823C4.60668 19.746 4.30435 19.0185 4.30435 18.26ZM17.2174 16.83C16.8369 16.83 16.4719 16.9807 16.2028 17.2488C15.9338 17.517 15.7826 17.8807 15.7826 18.26C15.7826 18.6393 15.9338 19.003 16.2028 19.2712C16.4719 19.5393 16.8369 19.69 17.2174 19.69C17.5979 19.69 17.9629 19.5393 18.2319 19.2712C18.501 19.003 18.6522 18.6393 18.6522 18.26C18.6522 17.8807 18.501 17.517 18.2319 17.2488C17.9629 16.9807 17.5979 16.83 17.2174 16.83ZM14.3478 18.26C14.3478 17.5015 14.6502 16.774 15.1883 16.2377C15.7264 15.7013 16.4563 15.4 17.2174 15.4C17.9784 15.4 18.7083 15.7013 19.2465 16.2377C19.7846 16.774 20.087 17.5015 20.087 18.26C20.087 19.0185 19.7846 19.746 19.2465 20.2823C18.7083 20.8187 17.9784 21.12 17.2174 21.12C16.4563 21.12 15.7264 20.8187 15.1883 20.2823C14.6502 19.746 14.3478 19.0185 14.3478 18.26Z" fill="white"/>
<path d="M0 1.815C0 1.62537 0.0755821 1.44351 0.210119 1.30942C0.344656 1.17533 0.527127 1.1 0.717391 1.1H2.86957C3.02959 1.10004 3.185 1.15341 3.31109 1.25161C3.43718 1.34982 3.52671 1.48722 3.56543 1.64197L4.14652 3.96H20.8043C20.9133 3.96003 21.0208 3.9848 21.1188 4.03243C21.2167 4.08006 21.3025 4.14931 21.3695 4.2349C21.4366 4.3205 21.4832 4.4202 21.5059 4.52643C21.5285 4.63267 21.5266 4.74265 21.5002 4.84803L19.348 13.428C19.3093 13.5828 19.2198 13.7202 19.0937 13.8184C18.9676 13.9166 18.8122 13.97 18.6522 13.97H5.73913C5.57911 13.97 5.42369 13.9166 5.2976 13.8184C5.17151 13.7202 5.08199 13.5828 5.04326 13.428L2.31 2.53H0.717391C0.527127 2.53 0.344656 2.45467 0.210119 2.32058C0.0755821 2.18649 0 2.00463 0 1.815ZM4.50522 5.39L6.2987 12.54H18.0926L19.8861 5.39H4.50522ZM7.17391 16.83C6.79338 16.83 6.42844 16.9807 6.15937 17.2488C5.89029 17.517 5.73913 17.8807 5.73913 18.26C5.73913 18.6393 5.89029 19.003 6.15937 19.2712C6.42844 19.5393 6.79338 19.69 7.17391 19.69C7.55444 19.69 7.91938 19.5393 8.18846 19.2712C8.45753 19.003 8.6087 18.6393 8.6087 18.26C8.6087 17.8807 8.45753 17.517 8.18846 17.2488C7.91938 16.9807 7.55444 16.83 7.17391 16.83ZM4.30435 18.26C4.30435 17.5015 4.60668 16.774 5.14482 16.2377C5.68297 15.7013 6.41286 15.4 7.17391 15.4C7.93497 15.4 8.66485 15.7013 9.203 16.2377C9.74115 16.774 10.0435 17.5015 10.0435 18.26C10.0435 19.0185 9.74115 19.746 9.203 20.2823C8.66485 20.8187 7.93497 21.12 7.17391 21.12C6.41286 21.12 5.68297 20.8187 5.14482 20.2823C4.60668 19.746 4.30435 19.0185 4.30435 18.26ZM17.2174 16.83C16.8369 16.83 16.4719 16.9807 16.2028 17.2488C15.9338 17.517 15.7826 17.8807 15.7826 18.26C15.7826 18.6393 15.9338 19.003 16.2028 19.2712C16.4719 19.5393 16.8369 19.69 17.2174 19.69C17.5979 19.69 17.9629 19.5393 18.2319 19.2712C18.501 19.003 18.6522 18.6393 18.6522 18.26C18.6522 17.8807 18.501 17.517 18.2319 17.2488C17.9629 16.9807 17.5979 16.83 17.2174 16.83ZM14.3478 18.26C14.3478 17.5015 14.6502 16.774 15.1883 16.2377C15.7264 15.7013 16.4563 15.4 17.2174 15.4C17.9784 15.4 18.7083 15.7013 19.2465 16.2377C19.7846 16.774 20.087 17.5015 20.087 18.26C20.087 19.0185 19.7846 19.746 19.2465 20.2823C18.7083 20.8187 17.9784 21.12 17.2174 21.12C16.4563 21.12 15.7264 20.8187 15.1883 20.2823C14.6502 19.746 14.3478 19.0185 14.3478 18.26Z" fill="url(#paint0_linear_38_183)"/>
</g>
</g>
<defs>
<linearGradient id="paint0_linear_38_183" x1="-0.56563" y1="28.2408" x2="21.1183" y2="21.3637" gradientUnits="userSpaceOnUse">
<stop stop-color="#0D748B"/>
<stop offset="1" stop-color="#1A0B73"/>
</linearGradient>
</defs>
</svg>
