<svg width="20" height="20" viewBox="0 0 20 20" fill="none" xmlns="http://www.w3.org/2000/svg">
<g id="charm:search" clip-path="url(#clip0_38_192)">
<g id="Group">
<g id="Union">
<path fill-rule="evenodd" clip-rule="evenodd" d="M14.5405 8.37171C14.5405 11.7786 11.7786 14.5405 8.3717 14.5405C4.9648 14.5405 2.20295 11.7786 2.20295 8.37171C2.20295 4.96481 4.9648 2.20296 8.3717 2.20296C11.7786 2.20296 14.5405 4.96481 14.5405 8.37171ZM14.607 13.3342C15.692 11.9728 16.3405 10.248 16.3405 8.37171C16.3405 3.97069 12.7727 0.402962 8.3717 0.402962C3.97069 0.402962 0.402954 3.97069 0.402954 8.37171C0.402954 12.7727 3.97069 16.3405 8.3717 16.3405C10.248 16.3405 11.9728 15.692 13.3342 14.607L18.311 19.5838C18.6624 19.9352 19.2323 19.9352 19.5838 19.5838C19.9352 19.2323 19.9352 18.6624 19.5838 18.311L14.607 13.3342Z" fill="white"/>
<path fill-rule="evenodd" clip-rule="evenodd" d="M14.5405 8.37171C14.5405 11.7786 11.7786 14.5405 8.3717 14.5405C4.9648 14.5405 2.20295 11.7786 2.20295 8.37171C2.20295 4.96481 4.9648 2.20296 8.3717 2.20296C11.7786 2.20296 14.5405 4.96481 14.5405 8.37171ZM14.607 13.3342C15.692 11.9728 16.3405 10.248 16.3405 8.37171C16.3405 3.97069 12.7727 0.402962 8.3717 0.402962C3.97069 0.402962 0.402954 3.97069 0.402954 8.37171C0.402954 12.7727 3.97069 16.3405 8.3717 16.3405C10.248 16.3405 11.9728 15.692 13.3342 14.607L18.311 19.5838C18.6624 19.9352 19.2323 19.9352 19.5838 19.5838C19.9352 19.2323 19.9352 18.6624 19.5838 18.311L14.607 13.3342Z" fill="url(#paint0_linear_38_192)"/>
</g>
</g>
</g>
<defs>
<linearGradient id="paint0_linear_38_192" x1="-0.108085" y1="26.7634" x2="19.7272" y2="20.9115" gradientUnits="userSpaceOnUse">
<stop stop-color="#0D748B"/>
<stop offset="1" stop-color="#1A0B73"/>
</linearGradient>
<clipPath id="clip0_38_192">
<rect width="20" height="20" fill="white"/>
</clipPath>
</defs>
</svg>
