<svg width="20" height="20" viewBox="0 0 20 20" fill="none" xmlns="http://www.w3.org/2000/svg">
<g id="heart" clip-path="url(#clip0_38_189)">
<g id="Vector">
<path d="M17.6545 3.25455C17.1984 2.79689 16.6565 2.43376 16.0598 2.18599C15.4631 1.93822 14.8233 1.81068 14.1772 1.81068C13.5311 1.81068 12.8914 1.93822 12.2947 2.18599C11.6979 2.43376 11.156 2.79689 10.6999 3.25455L9.99995 3.96364L9.29995 3.25455C8.84387 2.79689 8.30195 2.43376 7.70524 2.18599C7.10853 1.93822 6.46878 1.81068 5.82267 1.81068C5.17657 1.81068 4.53682 1.93822 3.94011 2.18599C3.3434 2.43376 2.80147 2.79689 2.3454 3.25455C0.418127 5.18182 0.299945 8.43637 2.72722 10.9091L9.99995 18.1818L17.2727 10.9091C19.6999 8.43637 19.5818 5.18182 17.6545 3.25455Z" stroke="white" stroke-width="1.8" stroke-linecap="round" stroke-linejoin="round"/>
<path d="M17.6545 3.25455C17.1984 2.79689 16.6565 2.43376 16.0598 2.18599C15.4631 1.93822 14.8233 1.81068 14.1772 1.81068C13.5311 1.81068 12.8914 1.93822 12.2947 2.18599C11.6979 2.43376 11.156 2.79689 10.6999 3.25455L9.99995 3.96364L9.29995 3.25455C8.84387 2.79689 8.30195 2.43376 7.70524 2.18599C7.10853 1.93822 6.46878 1.81068 5.82267 1.81068C5.17657 1.81068 4.53682 1.93822 3.94011 2.18599C3.3434 2.43376 2.80147 2.79689 2.3454 3.25455C0.418127 5.18182 0.299945 8.43637 2.72722 10.9091L9.99995 18.1818L17.2727 10.9091C19.6999 8.43637 19.5818 5.18182 17.6545 3.25455Z" stroke="url(#paint0_linear_38_189)" stroke-width="1.8" stroke-linecap="round" stroke-linejoin="round"/>
</g>
</g>
<defs>
<linearGradient id="paint0_linear_38_189" x1="0.423623" y1="24.0047" x2="18.6422" y2="18.0306" gradientUnits="userSpaceOnUse">
<stop stop-color="#0D748B"/>
<stop offset="1" stop-color="#1A0B73"/>
</linearGradient>
<clipPath id="clip0_38_189">
<rect width="20" height="20" fill="white"/>
</clipPath>
</defs>
</svg>
