<svg width="16" height="16" viewBox="0 0 16 16" fill="none" xmlns="http://www.w3.org/2000/svg">
<g id="phone" clip-path="url(#clip0_38_217)">
<path id="Vector" d="M6.76442 9.17333C7.69219 10.1145 8.81477 10.8412 10.0533 11.3022L11.7289 9.96889C11.7785 9.93468 11.8374 9.91636 11.8978 9.91636C11.9581 9.91636 12.017 9.93468 12.0666 9.96889L15.1778 11.9733C15.2959 12.0443 15.3958 12.1418 15.4698 12.2581C15.5438 12.3744 15.5897 12.5063 15.6039 12.6434C15.6181 12.7805 15.6003 12.919 15.5518 13.048C15.5033 13.177 15.4254 13.2929 15.3244 13.3867L13.8666 14.8267C13.6579 15.0329 13.4013 15.1843 13.1198 15.2673C12.8383 15.3503 12.5406 15.3623 12.2533 15.3022C9.38763 14.7104 6.74626 13.3242 4.63109 11.3022C2.56286 9.26011 1.13165 6.66171 0.511088 3.82222C0.449784 3.5394 0.462579 3.24553 0.548233 2.9691C0.633887 2.69267 0.789495 2.44306 0.999977 2.24444L2.51109 0.786667C2.6046 0.690573 2.71864 0.616878 2.84466 0.571102C2.97069 0.525325 3.10544 0.508653 3.23883 0.522333C3.37221 0.536014 3.50077 0.579692 3.61488 0.650098C3.72899 0.720504 3.8257 0.815814 3.89776 0.928889L5.96887 4C6.00459 4.04823 6.02387 4.10665 6.02387 4.16667C6.02387 4.22668 6.00459 4.28511 5.96887 4.33333L4.60442 5.97333C5.07801 7.18708 5.81586 8.28019 6.76442 9.17333Z" fill="#F0F5FB"/>
</g>
<defs>
<clipPath id="clip0_38_217">
<rect width="16" height="16" fill="white"/>
</clipPath>
</defs>
</svg>
