<svg width="26" height="26" viewBox="0 0 26 26" fill="none" xmlns="http://www.w3.org/2000/svg">
<path d="M13 0C5.82029 0 0 5.82029 0 13C0 20.1797 5.82029 26 13 26C20.1797 26 26 20.1797 26 13C26 5.82029 20.1797 0 13 0ZM19.7569 8.22331L17.448 19.2461C17.42 19.3794 17.3591 19.5036 17.2706 19.6072C17.1822 19.7108 17.0691 19.7905 16.9418 19.839C16.8145 19.8875 16.6771 19.9032 16.5421 19.8847C16.4072 19.8663 16.279 19.8142 16.1695 19.7332L12.811 17.252L10.7763 19.1715C10.7497 19.1967 10.7183 19.2162 10.684 19.2291C10.6497 19.242 10.6132 19.2479 10.5766 19.2465C10.54 19.2451 10.5041 19.2365 10.4709 19.221C10.4377 19.2056 10.4079 19.1837 10.3832 19.1566L10.3395 19.1086L10.6931 15.6872L17.0653 9.86507C17.0968 9.83633 17.1164 9.79681 17.1202 9.75433C17.124 9.71185 17.1118 9.66948 17.0859 9.63558C17.06 9.60168 17.0223 9.57872 16.9804 9.57122C16.9384 9.56372 16.8951 9.57223 16.8591 9.59507L8.70975 14.7529L5.2 13.5742C5.10668 13.5428 5.02534 13.4834 4.96715 13.404C4.90896 13.3246 4.87677 13.2291 4.87499 13.1307C4.87321 13.0322 4.90193 12.9356 4.95721 12.8542C5.01249 12.7727 5.09162 12.7104 5.18375 12.6757L18.916 7.50262C19.0219 7.46276 19.1366 7.45209 19.2481 7.47172C19.3596 7.49135 19.4637 7.54056 19.5497 7.61422C19.6356 7.68787 19.7002 7.78326 19.7366 7.89041C19.7731 7.99756 19.7801 8.11253 19.7569 8.22331Z" fill="#F0F5FB"/>
</svg>
